# xmcd
#
# Track frame offsets: 
#        150
#        23450
#        40507
#        57862
#        80447
#        99325
#        113372
#        132362
#        153072
#        172477
#        197115
#        219005
#
# Disc length: 3131 seconds
#
# Revision: 0
# Processed by: cddbd v1.5.2PL0 Copyright (c) Steve Scherf et al.
# Submitted via: ExactAudioCopy v1.0b3
#
DISCID=890c390c
DTITLE=Holly Arntzen with the Watershed Choir - Running from the Mount
DTITLE=ains
DYEAR=1999
DGENRE=Juvenile - Country
TTITLE0=Rain in the Summertime
TTITLE1=I'm Gonna Live the Life I Sing About
TTITLE2=Running from the Mountains
TTITLE3=Rushing River
TTITLE4=Estuaries and Marshes
TTITLE5=Away in the River
TTITLE6=Where the Coho Flash Silver
TTITLE7=More Pennies from Heaven
TTITLE8=I Planted Flowers
TTITLE9=We Can Run
TTITLE10=Stand Up
TTITLE11=Skin Drum
EXTD=
EXTT0=
EXTT1=
EXTT2=
EXTT3=
EXTT4=
EXTT5=
EXTT6=
EXTT7=
EXTT8=
EXTT9=
EXTT10=
EXTT11=
PLAYORDER=
